<svg width="200" height="32" viewBox="0 0 200 32" fill="none" xmlns="http://www.w3.org/2000/svg">
<path d="M12.1561 0.199998C13.7107 0.199998 15.1774 0.493332 16.5561 1.08C17.9347 1.66667 19.1374 2.47333 20.1641 3.5C21.1907 4.52667 21.9974 5.72933 22.5841 7.108C23.2001 8.48667 23.5081 9.968 23.5081 11.552V31.088H18.4041V18.812H13.2561L5.90806 26.16V31.088H0.804063V11.552C0.804063 9.968 1.0974 8.48667 1.68406 7.108C2.27073 5.72933 3.0774 4.52667 4.10406 3.5C5.13073 2.47333 6.3334 1.66667 7.71206 1.08C9.09073 0.493332 10.5721 0.199998 12.1561 0.199998ZM18.4041 11.552C18.4041 10.672 18.2427 9.86533 17.9201 9.132C17.5974 8.36933 17.1427 7.70933 16.5561 7.152C15.9987 6.56533 15.3387 6.11067 14.5761 5.788C13.8134 5.46533 13.0067 5.304 12.1561 5.304C11.2761 5.304 10.4547 5.46533 9.69206 5.788C8.95873 6.11067 8.29873 6.56533 7.71206 7.152C7.15473 7.70933 6.71473 8.36933 6.39206 9.132C6.0694 9.86533 5.90806 10.672 5.90806 11.552V18.944L10.8361 13.972V13.752L11.2761 13.708H18.4041V11.552ZM48.8407 7.9V31.088H43.7367V27.964L40.6127 31.088H39.5567C37.4447 31.1173 35.4794 30.6187 33.6607 29.592C31.8421 28.5653 30.4047 27.1427 29.3487 25.324C28.2927 23.5053 27.7647 21.5547 27.7647 19.472C27.7647 17.3893 28.2927 15.4387 29.3487 13.62C30.4047 11.772 31.8421 10.3347 33.6607 9.308C35.4794 8.28133 37.4447 7.79733 39.5567 7.856H46.9927V7.9H48.8407ZM43.7367 12.96H39.5567C38.6767 12.9307 37.8407 13.0627 37.0487 13.356C36.2861 13.6493 35.5967 14.0747 34.9807 14.632C34.3941 15.16 33.9101 15.8053 33.5287 16.568C33.1474 17.3013 32.9274 18.0933 32.8687 18.944C32.8101 19.824 32.9127 20.66 33.1767 21.452C33.4407 22.244 33.8221 22.9627 34.3207 23.608C34.8487 24.224 35.4647 24.7373 36.1687 25.148C36.9021 25.5587 37.7087 25.8227 38.5887 25.94L43.7367 20.748V12.96ZM74.4071 0.243997V31.132H69.3031V28.008L66.1791 31.132H65.1231C63.0111 31.1613 61.0458 30.6627 59.2271 29.636C57.4085 28.6093 55.9711 27.1867 54.9151 25.368C53.8591 23.5493 53.3311 21.5987 53.3311 19.516C53.3311 17.4333 53.8591 15.4827 54.9151 13.664C55.9711 11.816 57.4085 10.3787 59.2271 9.352C61.0458 8.32533 63.0111 7.84133 65.1231 7.9H69.3031V0.243997H74.4071ZM69.3031 13.004H65.1231C64.2431 12.9747 63.4071 13.1067 62.6151 13.4C61.8525 13.6933 61.1631 14.1187 60.5471 14.676C59.9605 15.204 59.4765 15.8347 59.0951 16.568C58.7138 17.3013 58.4938 18.108 58.4351 18.988C58.3765 19.868 58.4791 20.704 58.7431 21.496C59.0071 22.288 59.3885 23.0067 59.8871 23.652C60.4151 24.268 61.0311 24.7813 61.7351 25.192C62.4685 25.6027 63.2751 25.8667 64.1551 25.984L69.3031 20.792V13.004ZM82.6375 5.304C81.9335 5.304 81.3322 5.05467 80.8335 4.556C80.3349 4.05733 80.0855 3.47067 80.0855 2.796C80.0855 2.092 80.3349 1.49067 80.8335 0.991998C81.3322 0.493331 81.9335 0.243997 82.6375 0.243997C83.3415 0.243997 83.9282 0.493331 84.3975 0.991998C84.8962 1.49067 85.1455 2.092 85.1455 2.796C85.1455 3.47067 84.8962 4.05733 84.3975 4.556C83.9282 5.05467 83.3415 5.304 82.6375 5.304ZM80.0855 31.088V7.9H85.1895V31.088H80.0855ZM113.136 0.243997V16.876L104.116 31.044H99.0557L90.0357 16.876V0.243997H95.1397V15.424L101.564 25.544L108.032 15.424V0.243997H113.136ZM120.536 5.304C119.832 5.304 119.231 5.05467 118.732 4.556C118.233 4.05733 117.984 3.47067 117.984 2.796C117.984 2.092 118.233 1.49067 118.732 0.991998C119.231 0.493331 119.832 0.243997 120.536 0.243997C121.24 0.243997 121.827 0.493331 122.296 0.991998C122.795 1.49067 123.044 2.092 123.044 2.796C123.044 3.47067 122.795 4.05733 122.296 4.556C121.827 5.05467 121.24 5.304 120.536 5.304ZM117.984 31.088V7.9H123.088V31.088H117.984ZM138.01 7.9C140.122 7.84133 142.087 8.32533 143.906 9.352C145.725 10.3787 147.162 11.816 148.218 13.664C149.274 15.4827 149.802 17.4333 149.802 19.516C149.802 21.5987 149.274 23.5493 148.218 25.368C147.162 27.1867 145.725 28.6093 143.906 29.636C142.087 30.6627 140.122 31.1613 138.01 31.132H136.954L133.83 28.008V31.132H128.726V0.243997H133.83V7.9H138.01ZM138.978 25.984C139.858 25.8667 140.65 25.6027 141.354 25.192C142.087 24.7813 142.703 24.268 143.202 23.652C143.73 23.0067 144.126 22.288 144.39 21.496C144.654 20.704 144.757 19.868 144.698 18.988C144.639 18.108 144.419 17.3013 144.038 16.568C143.657 15.8347 143.158 15.204 142.542 14.676C141.955 14.1187 141.266 13.6933 140.474 13.4C139.711 13.1067 138.89 12.9747 138.01 13.004H133.83V20.792L138.978 25.984ZM176.557 21.848H158.913C159.411 23.08 160.203 24.0627 161.289 24.796C162.403 25.5293 163.621 25.896 164.941 25.896H165.381V31.088H164.941C163.357 31.088 161.861 30.7947 160.453 30.208C159.045 29.592 157.813 28.7707 156.757 27.744C155.701 26.688 154.865 25.456 154.249 24.048C153.633 22.64 153.325 21.1293 153.325 19.516C153.325 17.932 153.618 16.436 154.205 15.028C154.791 13.5907 155.598 12.344 156.625 11.288C157.681 10.232 158.898 9.396 160.277 8.78C161.685 8.164 163.195 7.856 164.809 7.856C166.393 7.82667 167.889 8.10533 169.297 8.692C170.734 9.27867 171.981 10.1 173.037 11.156C174.093 12.1827 174.929 13.4 175.545 14.808C176.19 16.1867 176.527 17.668 176.557 19.252V21.848ZM170.969 16.656C170.47 15.424 169.663 14.4413 168.549 13.708C167.463 12.9747 166.261 12.608 164.941 12.608C163.621 12.608 162.403 12.9747 161.289 13.708C160.203 14.4413 159.411 15.424 158.913 16.656H170.969ZM189.996 12.388C188.969 12.388 188.089 12.476 187.356 12.652C186.652 12.7987 186.139 13.0333 185.816 13.356C185.523 13.6493 185.405 13.9867 185.464 14.368V14.808C185.405 15.1893 185.523 15.4973 185.816 15.732C186.139 16.0547 186.652 16.304 187.356 16.48C188.089 16.656 188.969 16.744 189.996 16.744C193.633 16.744 196.303 17.5947 198.004 19.296C198.591 19.9413 199.031 20.6747 199.324 21.496C199.647 22.288 199.808 23.1093 199.808 23.96C199.808 24.7813 199.647 25.588 199.324 26.38C199.031 27.172 198.591 27.9053 198.004 28.58C196.332 30.2813 193.663 31.132 189.996 31.132C188.764 31.132 187.561 30.9707 186.388 30.648C185.244 30.3253 184.217 29.8413 183.308 29.196C182.399 28.5213 181.665 27.6853 181.108 26.688C180.551 25.6907 180.243 24.532 180.184 23.212V22.772H185.464V23.168C185.464 23.344 185.508 23.5933 185.596 23.916C185.684 24.2387 185.875 24.576 186.168 24.928C186.491 25.2507 186.945 25.5293 187.532 25.764C188.148 25.9987 188.969 26.116 189.996 26.116C191.023 26.116 191.888 26.0427 192.592 25.896C193.325 25.72 193.853 25.4707 194.176 25.148C194.469 24.8547 194.572 24.5173 194.484 24.136V23.696C194.543 23.2853 194.44 22.9773 194.176 22.772C193.853 22.4493 193.325 22.2 192.592 22.024C191.888 21.848 191.023 21.76 189.996 21.76C186.329 21.76 183.66 20.9093 181.988 19.208C181.401 18.5333 180.961 17.8 180.668 17.008C180.375 16.216 180.228 15.4093 180.228 14.588C180.228 13.7373 180.375 12.916 180.668 12.124C180.961 11.3027 181.401 10.5693 181.988 9.924C183.66 8.22267 186.329 7.372 189.996 7.372C191.257 7.372 192.46 7.53333 193.604 7.856C194.777 8.17867 195.804 8.67733 196.684 9.352C197.564 9.99733 198.283 10.8187 198.84 11.816C199.397 12.8133 199.72 13.972 199.808 15.292V15.732H194.528V15.292C194.528 15.116 194.484 14.8667 194.396 14.544C194.308 14.2213 194.103 13.8987 193.78 13.576C193.487 13.2533 193.032 12.9747 192.416 12.74C191.829 12.5053 191.023 12.388 189.996 12.388Z" fill="#1DB954"/>
</svg>
