<svg width="32" height="32" viewBox="0 0 32 32" fill="none" xmlns="http://www.w3.org/2000/svg">
<path d="M23.32 12.8L7.46671 22.36C6.53337 22.92 5.33337 22.2534 5.33337 21.16V10.4934C5.33337 5.84002 10.36 2.93335 14.4 5.25335L20.52 8.77335L23.3067 10.3734C24.2267 10.92 24.24 12.2534 23.32 12.8Z" fill="white"/>
<path d="M24.12 20.6134L18.72 23.7334L13.3334 26.8401C11.4 27.9468 9.21337 27.7201 7.6267 26.6001C6.85337 26.0668 6.9467 24.8801 7.76003 24.4001L24.7067 14.2401C25.5067 13.7601 26.56 14.2134 26.7067 15.1334C27.04 17.2001 26.1867 19.4268 24.12 20.6134Z" fill="white"/>
</svg>
