<svg width="32" height="32" viewBox="0 0 32 32" fill="none" xmlns="http://www.w3.org/2000/svg">
<path d="M27.1466 16.9734C26.6533 16.9734 26.24 16.6001 26.1866 16.1068C25.8666 13.1734 24.2933 10.5334 21.8666 8.85343C21.4266 8.54676 21.32 7.94676 21.6266 7.50676C21.9333 7.06676 22.5333 6.9601 22.9733 7.26676C25.8666 9.2801 27.7333 12.4268 28.12 15.9068C28.1733 16.4401 27.7866 16.9201 27.2533 16.9734C27.2133 16.9734 27.1866 16.9734 27.1466 16.9734Z" fill="white"/>
<path d="M4.98664 17.04C4.95998 17.04 4.91998 17.04 4.89331 17.04C4.35998 16.9867 3.97331 16.5067 4.02664 15.9734C4.38664 12.4934 6.22664 9.34669 9.09331 7.32002C9.51998 7.01336 10.1333 7.12002 10.44 7.54669C10.7466 7.98669 10.64 8.58669 10.2133 8.89336C7.81331 10.6 6.25331 13.24 5.95998 16.16C5.90664 16.6667 5.47998 17.04 4.98664 17.04Z" fill="white"/>
<path d="M21.32 28.1334C19.68 28.92 17.92 29.32 16.08 29.32C14.16 29.32 12.3333 28.8934 10.6267 28.0267C10.1467 27.8 9.96001 27.2134 10.2 26.7334C10.4267 26.2534 11.0133 26.0667 11.4933 26.2934C12.3333 26.72 13.2267 27.0134 14.1333 27.1867C15.36 27.4267 16.6133 27.44 17.84 27.2267C18.7467 27.0667 19.64 26.7867 20.4667 26.3867C20.96 26.16 21.5467 26.3467 21.76 26.84C22 27.32 21.8133 27.9067 21.32 28.1334Z" fill="white"/>
<path d="M16.0666 2.67993C14 2.67993 12.3066 4.35993 12.3066 6.43993C12.3066 8.51993 13.9866 10.1999 16.0666 10.1999C18.1466 10.1999 19.8266 8.51993 19.8266 6.43993C19.8266 4.35993 18.1466 2.67993 16.0666 2.67993Z" fill="white"/>
<path d="M6.73339 18.4934C4.66672 18.4934 2.97339 20.1734 2.97339 22.2534C2.97339 24.3334 4.65339 26.0134 6.73339 26.0134C8.81339 26.0134 10.4934 24.3334 10.4934 22.2534C10.4934 20.1734 8.80006 18.4934 6.73339 18.4934Z" fill="white"/>
<path d="M25.2667 18.4934C23.2 18.4934 21.5067 20.1734 21.5067 22.2534C21.5067 24.3334 23.1867 26.0134 25.2667 26.0134C27.3467 26.0134 29.0267 24.3334 29.0267 22.2534C29.0267 20.1734 27.3467 18.4934 25.2667 18.4934Z" fill="white"/>
</svg>
