<svg width="25" height="24" viewBox="0 0 25 24" fill="none" xmlns="http://www.w3.org/2000/svg">
<path d="M3.5 16.5C3.09 16.5 2.75 16.16 2.75 15.75V8.25C2.75 7.84 3.09 7.5 3.5 7.5C3.91 7.5 4.25 7.84 4.25 8.25V15.75C4.25 16.16 3.91 16.5 3.5 16.5Z" fill="#1DB954"/>
<path d="M8 19C7.59 19 7.25 18.66 7.25 18.25V5.75C7.25 5.34 7.59 5 8 5C8.41 5 8.75 5.34 8.75 5.75V18.25C8.75 18.66 8.41 19 8 19Z" fill="#1DB954"/>
<path d="M12.5 21.5C12.09 21.5 11.75 21.16 11.75 20.75V3.25C11.75 2.84 12.09 2.5 12.5 2.5C12.91 2.5 13.25 2.84 13.25 3.25V20.75C13.25 21.16 12.91 21.5 12.5 21.5Z" fill="#1DB954"/>
<path d="M17 19C16.59 19 16.25 18.66 16.25 18.25V5.75C16.25 5.34 16.59 5 17 5C17.41 5 17.75 5.34 17.75 5.75V18.25C17.75 18.66 17.41 19 17 19Z" fill="#1DB954"/>
<path d="M21.5 16.5C21.09 16.5 20.75 16.16 20.75 15.75V8.25C20.75 7.84 21.09 7.5 21.5 7.5C21.91 7.5 22.25 7.84 22.25 8.25V15.75C22.25 16.16 21.91 16.5 21.5 16.5Z" fill="#1DB954"/>
</svg>
