<svg width="204" height="162" viewBox="0 0 204 162" fill="none" xmlns="http://www.w3.org/2000/svg">
<rect x="52" width="100" height="100" rx="8" fill="#1DB954"/>
<g filter="url(#filter0_d_191_301)">
<path d="M81.0556 26.3687C83.4583 26.3687 85.725 26.8221 87.8556 27.7287C89.9863 28.6354 91.845 29.8821 93.4316 31.4688C95.0183 33.0554 96.265 34.9141 97.1716 37.0447C98.1236 39.1754 98.5996 41.4647 98.5996 43.9127V74.1048H90.7116V55.1327H82.7556L71.3996 66.4887V74.1048H63.5116V43.9127C63.5116 41.4647 63.965 39.1754 64.8716 37.0447C65.7783 34.9141 67.025 33.0554 68.6116 31.4688C70.1983 29.8821 72.057 28.6354 74.1876 27.7287C76.3183 26.8221 78.6076 26.3687 81.0556 26.3687ZM90.7116 43.9127C90.7116 42.5527 90.4623 41.3061 89.9636 40.1727C89.465 38.9941 88.7623 37.9741 87.8556 37.1127C86.9943 36.2061 85.9743 35.5034 84.7956 35.0047C83.617 34.5061 82.3703 34.2567 81.0556 34.2567C79.6956 34.2567 78.4263 34.5061 77.2476 35.0047C76.1143 35.5034 75.0943 36.2061 74.1876 37.1127C73.3263 37.9741 72.6463 38.9941 72.1476 40.1727C71.649 41.3061 71.3996 42.5527 71.3996 43.9127V55.3367L79.0156 47.6527V47.3127L79.6956 47.2447H90.7116V43.9127ZM141.49 26.4367V52.1407L127.55 74.0368H119.73L105.79 52.1407V26.4367H113.678V49.8967L123.606 65.5367L133.602 49.8967V26.4367H141.49Z" fill="white"/>
</g>
<path d="M116.375 39.0627C116.05 39.0627 115.781 38.7936 115.781 38.469V32.5315C115.781 32.2069 116.05 31.9377 116.375 31.9377C116.699 31.9377 116.969 32.2069 116.969 32.5315V38.469C116.969 38.7936 116.699 39.0627 116.375 39.0627Z" fill="white"/>
<path d="M119.937 41.0416C119.613 41.0416 119.344 40.7724 119.344 40.4478V30.552C119.344 30.2274 119.613 29.9583 119.937 29.9583C120.262 29.9583 120.531 30.2274 120.531 30.552V40.4478C120.531 40.7724 120.262 41.0416 119.937 41.0416Z" fill="white"/>
<path d="M123.5 43.0212C123.175 43.0212 122.906 42.752 122.906 42.4274V28.5732C122.906 28.2487 123.175 27.9795 123.5 27.9795C123.825 27.9795 124.094 28.2487 124.094 28.5732V42.4274C124.094 42.752 123.825 43.0212 123.5 43.0212Z" fill="white"/>
<path d="M127.063 41.0416C126.738 41.0416 126.469 40.7724 126.469 40.4478V30.552C126.469 30.2274 126.738 29.9583 127.063 29.9583C127.387 29.9583 127.656 30.2274 127.656 30.552V40.4478C127.656 40.7724 127.387 41.0416 127.063 41.0416Z" fill="white"/>
<path d="M130.625 39.0627C130.301 39.0627 130.032 38.7936 130.032 38.469V32.5315C130.032 32.2069 130.301 31.9377 130.625 31.9377C130.95 31.9377 131.219 32.2069 131.219 32.5315V38.469C131.219 38.7936 130.95 39.0627 130.625 39.0627Z" fill="white"/>
<path d="M14.1561 120.2C15.7107 120.2 17.1774 120.493 18.5561 121.08C19.9347 121.667 21.1374 122.473 22.1641 123.5C23.1907 124.527 23.9974 125.729 24.5841 127.108C25.2001 128.487 25.5081 129.968 25.5081 131.552V151.088H20.4041V138.812H15.2561L7.90806 146.16V151.088H2.80406V131.552C2.80406 129.968 3.0974 128.487 3.68406 127.108C4.27073 125.729 5.0774 124.527 6.10406 123.5C7.13073 122.473 8.3334 121.667 9.71206 121.08C11.0907 120.493 12.5721 120.2 14.1561 120.2ZM20.4041 131.552C20.4041 130.672 20.2427 129.865 19.9201 129.132C19.5974 128.369 19.1427 127.709 18.5561 127.152C17.9987 126.565 17.3387 126.111 16.5761 125.788C15.8134 125.465 15.0067 125.304 14.1561 125.304C13.2761 125.304 12.4547 125.465 11.6921 125.788C10.9587 126.111 10.2987 126.565 9.71206 127.152C9.15473 127.709 8.71473 128.369 8.39206 129.132C8.0694 129.865 7.90806 130.672 7.90806 131.552V138.944L12.8361 133.972V133.752L13.2761 133.708H20.4041V131.552ZM50.8407 127.9V151.088H45.7367V147.964L42.6127 151.088H41.5567C39.4447 151.117 37.4794 150.619 35.6607 149.592C33.8421 148.565 32.4047 147.143 31.3487 145.324C30.2927 143.505 29.7647 141.555 29.7647 139.472C29.7647 137.389 30.2927 135.439 31.3487 133.62C32.4047 131.772 33.8421 130.335 35.6607 129.308C37.4794 128.281 39.4447 127.797 41.5567 127.856H48.9927V127.9H50.8407ZM45.7367 132.96H41.5567C40.6767 132.931 39.8407 133.063 39.0487 133.356C38.2861 133.649 37.5967 134.075 36.9807 134.632C36.3941 135.16 35.9101 135.805 35.5287 136.568C35.1474 137.301 34.9274 138.093 34.8687 138.944C34.8101 139.824 34.9127 140.66 35.1767 141.452C35.4407 142.244 35.8221 142.963 36.3207 143.608C36.8487 144.224 37.4647 144.737 38.1687 145.148C38.9021 145.559 39.7087 145.823 40.5887 145.94L45.7367 140.748V132.96ZM76.4071 120.244V151.132H71.3031V148.008L68.1791 151.132H67.1231C65.0111 151.161 63.0458 150.663 61.2271 149.636C59.4085 148.609 57.9711 147.187 56.9151 145.368C55.8591 143.549 55.3311 141.599 55.3311 139.516C55.3311 137.433 55.8591 135.483 56.9151 133.664C57.9711 131.816 59.4085 130.379 61.2271 129.352C63.0458 128.325 65.0111 127.841 67.1231 127.9H71.3031V120.244H76.4071ZM71.3031 133.004H67.1231C66.2431 132.975 65.4071 133.107 64.6151 133.4C63.8525 133.693 63.1631 134.119 62.5471 134.676C61.9605 135.204 61.4765 135.835 61.0951 136.568C60.7138 137.301 60.4938 138.108 60.4351 138.988C60.3765 139.868 60.4791 140.704 60.7431 141.496C61.0071 142.288 61.3885 143.007 61.8871 143.652C62.4151 144.268 63.0311 144.781 63.7351 145.192C64.4685 145.603 65.2751 145.867 66.1551 145.984L71.3031 140.792V133.004ZM84.6375 125.304C83.9335 125.304 83.3322 125.055 82.8335 124.556C82.3349 124.057 82.0855 123.471 82.0855 122.796C82.0855 122.092 82.3349 121.491 82.8335 120.992C83.3322 120.493 83.9335 120.244 84.6375 120.244C85.3415 120.244 85.9282 120.493 86.3975 120.992C86.8962 121.491 87.1455 122.092 87.1455 122.796C87.1455 123.471 86.8962 124.057 86.3975 124.556C85.9282 125.055 85.3415 125.304 84.6375 125.304ZM82.0855 151.088V127.9H87.1895V151.088H82.0855ZM115.136 120.244V136.876L106.116 151.044H101.056L92.0357 136.876V120.244H97.1397V135.424L103.564 145.544L110.032 135.424V120.244H115.136ZM122.536 125.304C121.832 125.304 121.231 125.055 120.732 124.556C120.233 124.057 119.984 123.471 119.984 122.796C119.984 122.092 120.233 121.491 120.732 120.992C121.231 120.493 121.832 120.244 122.536 120.244C123.24 120.244 123.827 120.493 124.296 120.992C124.795 121.491 125.044 122.092 125.044 122.796C125.044 123.471 124.795 124.057 124.296 124.556C123.827 125.055 123.24 125.304 122.536 125.304ZM119.984 151.088V127.9H125.088V151.088H119.984ZM140.01 127.9C142.122 127.841 144.087 128.325 145.906 129.352C147.725 130.379 149.162 131.816 150.218 133.664C151.274 135.483 151.802 137.433 151.802 139.516C151.802 141.599 151.274 143.549 150.218 145.368C149.162 147.187 147.725 148.609 145.906 149.636C144.087 150.663 142.122 151.161 140.01 151.132H138.954L135.83 148.008V151.132H130.726V120.244H135.83V127.9H140.01ZM140.978 145.984C141.858 145.867 142.65 145.603 143.354 145.192C144.087 144.781 144.703 144.268 145.202 143.652C145.73 143.007 146.126 142.288 146.39 141.496C146.654 140.704 146.757 139.868 146.698 138.988C146.639 138.108 146.419 137.301 146.038 136.568C145.657 135.835 145.158 135.204 144.542 134.676C143.955 134.119 143.266 133.693 142.474 133.4C141.711 133.107 140.89 132.975 140.01 133.004H135.83V140.792L140.978 145.984ZM178.557 141.848H160.913C161.411 143.08 162.203 144.063 163.289 144.796C164.403 145.529 165.621 145.896 166.941 145.896H167.381V151.088H166.941C165.357 151.088 163.861 150.795 162.453 150.208C161.045 149.592 159.813 148.771 158.757 147.744C157.701 146.688 156.865 145.456 156.249 144.048C155.633 142.64 155.325 141.129 155.325 139.516C155.325 137.932 155.618 136.436 156.205 135.028C156.791 133.591 157.598 132.344 158.625 131.288C159.681 130.232 160.898 129.396 162.277 128.78C163.685 128.164 165.195 127.856 166.809 127.856C168.393 127.827 169.889 128.105 171.297 128.692C172.734 129.279 173.981 130.1 175.037 131.156C176.093 132.183 176.929 133.4 177.545 134.808C178.19 136.187 178.527 137.668 178.557 139.252V141.848ZM172.969 136.656C172.47 135.424 171.663 134.441 170.549 133.708C169.463 132.975 168.261 132.608 166.941 132.608C165.621 132.608 164.403 132.975 163.289 133.708C162.203 134.441 161.411 135.424 160.913 136.656H172.969ZM191.996 132.388C190.969 132.388 190.089 132.476 189.356 132.652C188.652 132.799 188.139 133.033 187.816 133.356C187.523 133.649 187.405 133.987 187.464 134.368V134.808C187.405 135.189 187.523 135.497 187.816 135.732C188.139 136.055 188.652 136.304 189.356 136.48C190.089 136.656 190.969 136.744 191.996 136.744C195.633 136.744 198.303 137.595 200.004 139.296C200.591 139.941 201.031 140.675 201.324 141.496C201.647 142.288 201.808 143.109 201.808 143.96C201.808 144.781 201.647 145.588 201.324 146.38C201.031 147.172 200.591 147.905 200.004 148.58C198.332 150.281 195.663 151.132 191.996 151.132C190.764 151.132 189.561 150.971 188.388 150.648C187.244 150.325 186.217 149.841 185.308 149.196C184.399 148.521 183.665 147.685 183.108 146.688C182.551 145.691 182.243 144.532 182.184 143.212V142.772H187.464V143.168C187.464 143.344 187.508 143.593 187.596 143.916C187.684 144.239 187.875 144.576 188.168 144.928C188.491 145.251 188.945 145.529 189.532 145.764C190.148 145.999 190.969 146.116 191.996 146.116C193.023 146.116 193.888 146.043 194.592 145.896C195.325 145.72 195.853 145.471 196.176 145.148C196.469 144.855 196.572 144.517 196.484 144.136V143.696C196.543 143.285 196.44 142.977 196.176 142.772C195.853 142.449 195.325 142.2 194.592 142.024C193.888 141.848 193.023 141.76 191.996 141.76C188.329 141.76 185.66 140.909 183.988 139.208C183.401 138.533 182.961 137.8 182.668 137.008C182.375 136.216 182.228 135.409 182.228 134.588C182.228 133.737 182.375 132.916 182.668 132.124C182.961 131.303 183.401 130.569 183.988 129.924C185.66 128.223 188.329 127.372 191.996 127.372C193.257 127.372 194.46 127.533 195.604 127.856C196.777 128.179 197.804 128.677 198.684 129.352C199.564 129.997 200.283 130.819 200.84 131.816C201.397 132.813 201.72 133.972 201.808 135.292V135.732H196.528V135.292C196.528 135.116 196.484 134.867 196.396 134.544C196.308 134.221 196.103 133.899 195.78 133.576C195.487 133.253 195.032 132.975 194.416 132.74C193.829 132.505 193.023 132.388 191.996 132.388Z" fill="#1DB954"/>
<defs>
<filter id="filter0_d_191_301" x="60.3867" y="26.3687" width="84.2283" height="53.9861" filterUnits="userSpaceOnUse" color-interpolation-filters="sRGB">
<feFlood flood-opacity="0" result="BackgroundImageFix"/>
<feColorMatrix in="SourceAlpha" type="matrix" values="0 0 0 0 0 0 0 0 0 0 0 0 0 0 0 0 0 0 127 0" result="hardAlpha"/>
<feOffset dy="3.125"/>
<feGaussianBlur stdDeviation="1.5625"/>
<feComposite in2="hardAlpha" operator="out"/>
<feColorMatrix type="matrix" values="0 0 0 0 0 0 0 0 0 0 0 0 0 0 0 0 0 0 0.25 0"/>
<feBlend mode="normal" in2="BackgroundImageFix" result="effect1_dropShadow_191_301"/>
<feBlend mode="normal" in="SourceGraphic" in2="effect1_dropShadow_191_301" result="shape"/>
</filter>
</defs>
</svg>
